<svg id="visual" viewBox="0 0 900 600" width="900" height="600" xmlns="http://www.w3.org/2000/svg" xmlns:xlink="http://www.w3.org/1999/xlink" version="1.1"><path d="M0 361L21.5 372.8C43 384.7 86 408.3 128.8 411.2C171.7 414 214.3 396 257.2 386C300 376 343 374 385.8 376.7C428.7 379.3 471.3 386.7 514.2 397.8C557 409 600 424 642.8 416.7C685.7 409.3 728.3 379.7 771.2 366.7C814 353.7 857 357.3 878.5 359.2L900 361L900 601L878.5 601C857 601 814 601 771.2 601C728.3 601 685.7 601 642.8 601C600 601 557 601 514.2 601C471.3 601 428.7 601 385.8 601C343 601 300 601 257.2 601C214.3 601 171.7 601 128.8 601C86 601 43 601 21.5 601L0 601Z" fill="#b7ff9d"></path><path d="M0 434L21.5 438.5C43 443 86 452 128.8 449C171.7 446 214.3 431 257.2 425.8C300 420.7 343 425.3 385.8 432.3C428.7 439.3 471.3 448.7 514.2 455.3C557 462 600 466 642.8 461.5C685.7 457 728.3 444 771.2 435.2C814 426.3 857 421.7 878.5 419.3L900 417L900 601L878.5 601C857 601 814 601 771.2 601C728.3 601 685.7 601 642.8 601C600 601 557 601 514.2 601C471.3 601 428.7 601 385.8 601C343 601 300 601 257.2 601C214.3 601 171.7 601 128.8 601C86 601 43 601 21.5 601L0 601Z" fill="#a0f083"></path><path d="M0 477L21.5 481.3C43 485.7 86 494.3 128.8 492.8C171.7 491.3 214.3 479.7 257.2 474.2C300 468.7 343 469.3 385.8 473.5C428.7 477.7 471.3 485.3 514.2 482.5C557 479.7 600 466.3 642.8 461.2C685.7 456 728.3 459 771.2 466.2C814 473.3 857 484.7 878.5 490.3L900 496L900 601L878.5 601C857 601 814 601 771.2 601C728.3 601 685.7 601 642.8 601C600 601 557 601 514.2 601C471.3 601 428.7 601 385.8 601C343 601 300 601 257.2 601C214.3 601 171.7 601 128.8 601C86 601 43 601 21.5 601L0 601Z" fill="#88e268"></path><path d="M0 524L21.5 526.5C43 529 86 534 128.8 527.2C171.7 520.3 214.3 501.7 257.2 498.7C300 495.7 343 508.3 385.8 514.8C428.7 521.3 471.3 521.7 514.2 515C557 508.3 600 494.7 642.8 497.3C685.7 500 728.3 519 771.2 522.3C814 525.7 857 513.3 878.5 507.2L900 501L900 601L878.5 601C857 601 814 601 771.2 601C728.3 601 685.7 601 642.8 601C600 601 557 601 514.2 601C471.3 601 428.7 601 385.8 601C343 601 300 601 257.2 601C214.3 601 171.7 601 128.8 601C86 601 43 601 21.5 601L0 601Z" fill="#70d44c"></path><path d="M0 534L21.5 539.5C43 545 86 556 128.8 560C171.7 564 214.3 561 257.2 556.2C300 551.3 343 544.7 385.8 544.5C428.7 544.3 471.3 550.7 514.2 551.8C557 553 600 549 642.8 544.5C685.7 540 728.3 535 771.2 534.3C814 533.7 857 537.3 878.5 539.2L900 541L900 601L878.5 601C857 601 814 601 771.2 601C728.3 601 685.7 601 642.8 601C600 601 557 601 514.2 601C471.3 601 428.7 601 385.8 601C343 601 300 601 257.2 601C214.3 601 171.7 601 128.8 601C86 601 43 601 21.5 601L0 601Z" fill="#55c62c"></path></svg>